<svg xmlns="http://www.w3.org/2000/svg" xmlns:xlink="http://www.w3.org/1999/xlink" width="800" zoomAndPan="magnify" viewBox="0 0 600 225" height="300" preserveAspectRatio="xMidYMid meet" version="1.0"><defs><g/><clipPath id="826e141a1c"><path d="M 175.105469 44 L 199 44 L 199 68 L 175.105469 68 Z M 175.105469 44 " clip-rule="nonzero"/></clipPath><clipPath id="2d077a11c6"><path d="M 174.453125 55.917969 C 174.453125 62.871094 180.089844 68.503906 187.039062 68.503906 C 193.988281 68.503906 199.625 62.871094 199.625 55.917969 C 199.625 48.96875 193.988281 43.335938 187.039062 43.335938 C 180.089844 43.335938 174.453125 48.96875 174.453125 55.917969 Z M 174.453125 55.917969 " clip-rule="nonzero"/></clipPath><clipPath id="7aa687e0c3"><path d="M 187.039062 44.117188 C 193.558594 44.117188 198.84375 49.402344 198.84375 55.917969 C 198.84375 62.4375 193.558594 67.722656 187.039062 67.722656 C 180.519531 67.722656 175.234375 62.4375 175.234375 55.917969 C 175.234375 49.402344 180.519531 44.117188 187.039062 44.117188 Z M 187.039062 44.117188 " clip-rule="nonzero"/></clipPath><clipPath id="299a171832"><path d="M 174.453125 43.335938 L 199.851562 43.335938 L 199.851562 68.730469 L 174.453125 68.730469 Z M 174.453125 43.335938 " clip-rule="nonzero"/></clipPath><clipPath id="07dd1cb0a4"><path d="M 174.453125 55.917969 C 174.453125 62.871094 180.089844 68.503906 187.039062 68.503906 C 193.988281 68.503906 199.625 62.871094 199.625 55.917969 C 199.625 48.96875 193.988281 43.335938 187.039062 43.335938 C 180.089844 43.335938 174.453125 48.96875 174.453125 55.917969 Z M 174.453125 55.917969 " clip-rule="nonzero"/></clipPath><clipPath id="c73126762e"><path d="M 174.453125 55.917969 C 174.453125 62.867188 180.085938 68.5 187.039062 68.5 C 193.988281 68.5 199.621094 62.867188 199.621094 55.917969 C 199.621094 48.96875 193.988281 43.335938 187.039062 43.335938 C 180.085938 43.335938 174.453125 48.96875 174.453125 55.917969 Z M 174.453125 55.917969 " clip-rule="nonzero"/></clipPath><clipPath id="10e7062ab6"><path d="M 83.707031 16 L 107.804688 16 L 107.804688 40 L 83.707031 40 Z M 83.707031 16 " clip-rule="nonzero"/></clipPath><clipPath id="3d04b0e904"><path d="M 83.054688 27.898438 C 83.054688 34.851562 88.6875 40.484375 95.640625 40.484375 C 102.589844 40.484375 108.222656 34.851562 108.222656 27.898438 C 108.222656 20.949219 102.589844 15.316406 95.640625 15.316406 C 88.6875 15.316406 83.054688 20.949219 83.054688 27.898438 Z M 83.054688 27.898438 " clip-rule="nonzero"/></clipPath><clipPath id="ec9014bac7"><path d="M 95.640625 16.097656 C 102.160156 16.097656 107.441406 21.378906 107.441406 27.898438 C 107.441406 34.417969 102.160156 39.703125 95.640625 39.703125 C 89.121094 39.703125 83.835938 34.417969 83.835938 27.898438 C 83.835938 21.378906 89.121094 16.097656 95.640625 16.097656 Z M 95.640625 16.097656 " clip-rule="nonzero"/></clipPath><clipPath id="75cc396c88"><path d="M 83.054688 15.316406 L 108.449219 15.316406 L 108.449219 40.710938 L 83.054688 40.710938 Z M 83.054688 15.316406 " clip-rule="nonzero"/></clipPath><clipPath id="bb3ce185dc"><path d="M 83.054688 27.898438 C 83.054688 34.851562 88.6875 40.484375 95.640625 40.484375 C 102.589844 40.484375 108.222656 34.851562 108.222656 27.898438 C 108.222656 20.949219 102.589844 15.316406 95.640625 15.316406 C 88.6875 15.316406 83.054688 20.949219 83.054688 27.898438 Z M 83.054688 27.898438 " clip-rule="nonzero"/></clipPath><clipPath id="d0f05fd384"><path d="M 83.054688 27.898438 C 83.054688 34.847656 88.6875 40.480469 95.636719 40.480469 C 102.585938 40.480469 108.21875 34.847656 108.21875 27.898438 C 108.21875 20.949219 102.585938 15.316406 95.636719 15.316406 C 88.6875 15.316406 83.054688 20.949219 83.054688 27.898438 Z M 83.054688 27.898438 " clip-rule="nonzero"/></clipPath><clipPath id="eaa23fecc4"><path d="M 53.421875 13.34375 L 77.519531 13.34375 L 77.519531 37.441406 L 53.421875 37.441406 Z M 53.421875 13.34375 " clip-rule="nonzero"/></clipPath><clipPath id="0ec5ee06ed"><path d="M 52.769531 25.277344 C 52.769531 32.226562 58.40625 37.863281 65.355469 37.863281 C 72.308594 37.863281 77.941406 32.226562 77.941406 25.277344 C 77.941406 18.324219 72.308594 12.691406 65.355469 12.691406 C 58.40625 12.691406 52.769531 18.324219 52.769531 25.277344 Z M 52.769531 25.277344 " clip-rule="nonzero"/></clipPath><clipPath id="1b13597d65"><path d="M 65.355469 13.472656 C 71.875 13.472656 77.160156 18.757812 77.160156 25.277344 C 77.160156 31.796875 71.875 37.082031 65.355469 37.082031 C 58.835938 37.082031 53.550781 31.796875 53.550781 25.277344 C 53.550781 18.757812 58.835938 13.472656 65.355469 13.472656 Z M 65.355469 13.472656 " clip-rule="nonzero"/></clipPath><clipPath id="0f3177c92a"><path d="M 52.769531 12.691406 L 78 12.691406 L 78 38 L 52.769531 38 Z M 52.769531 12.691406 " clip-rule="nonzero"/></clipPath><clipPath id="441732190a"><path d="M 52.769531 25.277344 C 52.769531 32.226562 58.40625 37.863281 65.355469 37.863281 C 72.308594 37.863281 77.941406 32.226562 77.941406 25.277344 C 77.941406 18.324219 72.308594 12.691406 65.355469 12.691406 C 58.40625 12.691406 52.769531 18.324219 52.769531 25.277344 Z M 52.769531 25.277344 " clip-rule="nonzero"/></clipPath><clipPath id="b036e13d5c"><path d="M 52.769531 25.273438 C 52.769531 32.222656 58.40625 37.859375 65.355469 37.859375 C 72.304688 37.859375 77.9375 32.222656 77.9375 25.273438 C 77.9375 18.324219 72.304688 12.691406 65.355469 12.691406 C 58.40625 12.691406 52.769531 18.324219 52.769531 25.273438 Z M 52.769531 25.273438 " clip-rule="nonzero"/></clipPath><clipPath id="282efd337c"><path d="M 55.804688 44 L 79.902344 44 L 79.902344 68 L 55.804688 68 Z M 55.804688 44 " clip-rule="nonzero"/></clipPath><clipPath id="2caec77057"><path d="M 55.15625 55.917969 C 55.15625 62.871094 60.789062 68.503906 67.742188 68.503906 C 74.691406 68.503906 80.324219 62.871094 80.324219 55.917969 C 80.324219 48.96875 74.691406 43.335938 67.742188 43.335938 C 60.789062 43.335938 55.15625 48.96875 55.15625 55.917969 Z M 55.15625 55.917969 " clip-rule="nonzero"/></clipPath><clipPath id="f83631eaed"><path d="M 67.742188 44.117188 C 74.257812 44.117188 79.542969 49.402344 79.542969 55.917969 C 79.542969 62.4375 74.257812 67.722656 67.742188 67.722656 C 61.222656 67.722656 55.9375 62.4375 55.9375 55.917969 C 55.9375 49.402344 61.222656 44.117188 67.742188 44.117188 Z M 67.742188 44.117188 " clip-rule="nonzero"/></clipPath><clipPath id="2376608cad"><path d="M 55.15625 43.335938 L 80.550781 43.335938 L 80.550781 68.730469 L 55.15625 68.730469 Z M 55.15625 43.335938 " clip-rule="nonzero"/></clipPath><clipPath id="7c5461f60c"><path d="M 55.15625 55.917969 C 55.15625 62.871094 60.789062 68.503906 67.742188 68.503906 C 74.691406 68.503906 80.324219 62.871094 80.324219 55.917969 C 80.324219 48.96875 74.691406 43.335938 67.742188 43.335938 C 60.789062 43.335938 55.15625 48.96875 55.15625 55.917969 Z M 55.15625 55.917969 " clip-rule="nonzero"/></clipPath><clipPath id="6f0fcfe525"><path d="M 55.15625 55.917969 C 55.15625 62.867188 60.789062 68.5 67.738281 68.5 C 74.6875 68.5 80.320312 62.867188 80.320312 55.917969 C 80.320312 48.96875 74.6875 43.335938 67.738281 43.335938 C 60.789062 43.335938 55.15625 48.96875 55.15625 55.917969 Z M 55.15625 55.917969 " clip-rule="nonzero"/></clipPath><clipPath id="7cfd38a74f"><path d="M 23.152344 36.109375 L 47 36.109375 L 47 60 L 23.152344 60 Z M 23.152344 36.109375 " clip-rule="nonzero"/></clipPath><clipPath id="c58c64cd0b"><path d="M 22.5 48.042969 C 22.5 54.996094 28.132812 60.628906 35.085938 60.628906 C 42.035156 60.628906 47.671875 54.996094 47.671875 48.042969 C 47.671875 41.09375 42.035156 35.457031 35.085938 35.457031 C 28.132812 35.457031 22.5 41.09375 22.5 48.042969 Z M 22.5 48.042969 " clip-rule="nonzero"/></clipPath><clipPath id="ce3f3077f3"><path d="M 35.085938 36.242188 C 41.605469 36.242188 46.890625 41.523438 46.890625 48.042969 C 46.890625 54.5625 41.605469 59.847656 35.085938 59.847656 C 28.566406 59.847656 23.28125 54.5625 23.28125 48.042969 C 23.28125 41.523438 28.566406 36.242188 35.085938 36.242188 Z M 35.085938 36.242188 " clip-rule="nonzero"/></clipPath><clipPath id="926506928d"><path d="M 22.5 35.457031 L 47.894531 35.457031 L 47.894531 60.855469 L 22.5 60.855469 Z M 22.5 35.457031 " clip-rule="nonzero"/></clipPath><clipPath id="fbf711bb82"><path d="M 22.5 48.042969 C 22.5 54.996094 28.132812 60.628906 35.085938 60.628906 C 42.035156 60.628906 47.671875 54.996094 47.671875 48.042969 C 47.671875 41.09375 42.035156 35.457031 35.085938 35.457031 C 28.132812 35.457031 22.5 41.09375 22.5 48.042969 Z M 22.5 48.042969 " clip-rule="nonzero"/></clipPath><clipPath id="4ba4f96e7f"><path d="M 22.5 48.042969 C 22.5 54.992188 28.132812 60.625 35.082031 60.625 C 42.03125 60.625 47.667969 54.992188 47.667969 48.042969 C 47.667969 41.09375 42.03125 35.457031 35.082031 35.457031 C 28.132812 35.457031 22.5 41.09375 22.5 48.042969 Z M 22.5 48.042969 " clip-rule="nonzero"/></clipPath><clipPath id="a8771c1084"><path d="M 205.375 37.027344 L 229.472656 37.027344 L 229.472656 61 L 205.375 61 Z M 205.375 37.027344 " clip-rule="nonzero"/></clipPath><clipPath id="ca94eed632"><path d="M 204.726562 48.960938 C 204.726562 55.910156 210.359375 61.546875 217.308594 61.546875 C 224.261719 61.546875 229.894531 55.910156 229.894531 48.960938 C 229.894531 42.011719 224.261719 36.375 217.308594 36.375 C 210.359375 36.375 204.726562 42.011719 204.726562 48.960938 Z M 204.726562 48.960938 " clip-rule="nonzero"/></clipPath><clipPath id="5e0fafa2ac"><path d="M 217.308594 37.15625 C 223.828125 37.15625 229.113281 42.441406 229.113281 48.960938 C 229.113281 55.480469 223.828125 60.765625 217.308594 60.765625 C 210.792969 60.765625 205.507812 55.480469 205.507812 48.960938 C 205.507812 42.441406 210.792969 37.15625 217.308594 37.15625 Z M 217.308594 37.15625 " clip-rule="nonzero"/></clipPath><clipPath id="5ed4f44c13"><path d="M 204.726562 36.375 L 230 36.375 L 230 61.773438 L 204.726562 61.773438 Z M 204.726562 36.375 " clip-rule="nonzero"/></clipPath><clipPath id="6dc6da2dac"><path d="M 204.726562 48.960938 C 204.726562 55.910156 210.359375 61.546875 217.308594 61.546875 C 224.261719 61.546875 229.894531 55.910156 229.894531 48.960938 C 229.894531 42.011719 224.261719 36.375 217.308594 36.375 C 210.359375 36.375 204.726562 42.011719 204.726562 48.960938 Z M 204.726562 48.960938 " clip-rule="nonzero"/></clipPath><clipPath id="334ad29ea7"><path d="M 204.726562 48.960938 C 204.726562 55.910156 210.359375 61.542969 217.308594 61.542969 C 224.257812 61.542969 229.890625 55.910156 229.890625 48.960938 C 229.890625 42.011719 224.257812 36.375 217.308594 36.375 C 210.359375 36.375 204.726562 42.011719 204.726562 48.960938 Z M 204.726562 48.960938 " clip-rule="nonzero"/></clipPath><clipPath id="a73759d8c8"><path d="M 202.347656 69.15625 L 226.445312 69.15625 L 226.445312 93 L 202.347656 93 Z M 202.347656 69.15625 " clip-rule="nonzero"/></clipPath><clipPath id="3611223d58"><path d="M 201.699219 81.089844 C 201.699219 88.039062 207.332031 93.675781 214.285156 93.675781 C 221.234375 93.675781 226.867188 88.039062 226.867188 81.089844 C 226.867188 74.140625 221.234375 68.503906 214.285156 68.503906 C 207.332031 68.503906 201.699219 74.140625 201.699219 81.089844 Z M 201.699219 81.089844 " clip-rule="nonzero"/></clipPath><clipPath id="5576678e5c"><path d="M 214.285156 69.285156 C 220.800781 69.285156 226.085938 74.570312 226.085938 81.089844 C 226.085938 87.609375 220.800781 92.894531 214.285156 92.894531 C 207.765625 92.894531 202.480469 87.609375 202.480469 81.089844 C 202.480469 74.570312 207.765625 69.285156 214.285156 69.285156 Z M 214.285156 69.285156 " clip-rule="nonzero"/></clipPath><clipPath id="682a8eb99d"><path d="M 201.699219 68.503906 L 227 68.503906 L 227 93.902344 L 201.699219 93.902344 Z M 201.699219 68.503906 " clip-rule="nonzero"/></clipPath><clipPath id="b8162b3a08"><path d="M 201.699219 81.089844 C 201.699219 88.039062 207.332031 93.675781 214.285156 93.675781 C 221.234375 93.675781 226.867188 88.039062 226.867188 81.089844 C 226.867188 74.140625 221.234375 68.503906 214.285156 68.503906 C 207.332031 68.503906 201.699219 74.140625 201.699219 81.089844 Z M 201.699219 81.089844 " clip-rule="nonzero"/></clipPath><clipPath id="0eae298b0d"><path d="M 201.699219 81.089844 C 201.699219 88.039062 207.332031 93.671875 214.28125 93.671875 C 221.230469 93.671875 226.863281 88.039062 226.863281 81.089844 C 226.863281 74.136719 221.230469 68.503906 214.28125 68.503906 C 207.332031 68.503906 201.699219 74.136719 201.699219 81.089844 Z M 201.699219 81.089844 " clip-rule="nonzero"/></clipPath><clipPath id="eaf88417fa"><path d="M 232.621094 64.328125 L 256.71875 64.328125 L 256.71875 88.425781 L 232.621094 88.425781 Z M 232.621094 64.328125 " clip-rule="nonzero"/></clipPath><clipPath id="4e91364611"><path d="M 231.96875 76.261719 C 231.96875 83.214844 237.605469 88.847656 244.554688 88.847656 C 251.503906 88.847656 257.140625 83.214844 257.140625 76.261719 C 257.140625 69.3125 251.503906 63.679688 244.554688 63.679688 C 237.605469 63.679688 231.96875 69.3125 231.96875 76.261719 Z M 231.96875 76.261719 " clip-rule="nonzero"/></clipPath><clipPath id="68867e31b3"><path d="M 244.554688 64.460938 C 251.074219 64.460938 256.359375 69.746094 256.359375 76.261719 C 256.359375 82.78125 251.074219 88.066406 244.554688 88.066406 C 238.035156 88.066406 232.75 82.78125 232.75 76.261719 C 232.75 69.746094 238.035156 64.460938 244.554688 64.460938 Z M 244.554688 64.460938 " clip-rule="nonzero"/></clipPath><clipPath id="286e556bc5"><path d="M 231.96875 63.679688 L 257.363281 63.679688 L 257.363281 89 L 231.96875 89 Z M 231.96875 63.679688 " clip-rule="nonzero"/></clipPath><clipPath id="26b51a143b"><path d="M 231.96875 76.261719 C 231.96875 83.214844 237.605469 88.847656 244.554688 88.847656 C 251.503906 88.847656 257.140625 83.214844 257.140625 76.261719 C 257.140625 69.3125 251.503906 63.679688 244.554688 63.679688 C 237.605469 63.679688 231.96875 69.3125 231.96875 76.261719 Z M 231.96875 76.261719 " clip-rule="nonzero"/></clipPath><clipPath id="0df64047c6"><path d="M 231.96875 76.261719 C 231.96875 83.210938 237.601562 88.84375 244.550781 88.84375 C 251.5 88.84375 257.136719 83.210938 257.136719 76.261719 C 257.136719 69.3125 251.5 63.679688 244.550781 63.679688 C 237.601562 63.679688 231.96875 69.3125 231.96875 76.261719 Z M 231.96875 76.261719 " clip-rule="nonzero"/></clipPath><clipPath id="f715e16ab8"><path d="M 382.738281 136.742188 L 421.726562 136.742188 L 421.726562 172.566406 L 382.738281 172.566406 Z M 382.738281 136.742188 " clip-rule="nonzero"/></clipPath></defs><path stroke-linecap="round" transform="matrix(0.460531, -0.460531, 0.460531, 0.460531, 80.750169, 207.700372)" fill="none" stroke-linejoin="miter" d="M 5.001239 4.998735 L 93.96525 5.002976 " stroke="#953cbc" stroke-width="10" stroke-opacity="1" stroke-miterlimit="4"/><path stroke-linecap="round" transform="matrix(0.461631, -0.459429, 0.459429, 0.461631, 80.755821, 187.380631)" fill="none" stroke-linejoin="miter" d="M 4.999206 4.997 L 93.730212 4.996845 " stroke="#953cbc" stroke-width="10" stroke-opacity="1" stroke-miterlimit="4"/><path stroke-linecap="round" transform="matrix(0.458137, -0.462913, 0.462913, 0.458137, 80.738089, 167.116906)" fill="none" stroke-linejoin="miter" d="M 4.999654 5.001229 L 94.482262 5.002936 " stroke="#953cbc" stroke-width="10" stroke-opacity="1" stroke-miterlimit="4"/><path stroke-linecap="round" transform="matrix(0.0114378, -0.651189, 0.651189, 0.0114378, 123.042328, 169.29302)" fill="none" stroke-linejoin="miter" d="M 5.000788 4.999996 L 81.147555 5.000217 " stroke="#953cbc" stroke-width="10" stroke-opacity="1" stroke-miterlimit="4"/><path stroke-linecap="round" transform="matrix(0.460531, -0.460531, 0.460531, 0.460531, 122.637835, 116.645292)" fill="none" stroke-linejoin="miter" d="M 4.999785 4.998132 L 119.64321 4.998132 " stroke="#953cbc" stroke-width="10" stroke-opacity="1" stroke-miterlimit="4"/><g clip-path="url(#826e141a1c)"><g clip-path="url(#2d077a11c6)"><g clip-path="url(#7aa687e0c3)"><path fill="#231f20" d="M 187.160156 43.339844 C 180.144531 43.339844 174.460938 49.03125 174.460938 56.039062 C 174.460938 63.050781 180.144531 68.742188 187.160156 68.742188 C 194.175781 68.742188 199.859375 63.050781 199.859375 56.039062 C 199.859375 49.03125 194.175781 43.339844 187.160156 43.339844 Z M 187.160156 67.9375 C 180.589844 67.9375 175.265625 62.609375 175.265625 56.039062 C 175.265625 49.46875 180.589844 44.144531 187.160156 44.144531 C 193.730469 44.144531 199.054688 49.46875 199.054688 56.039062 C 199.054688 62.609375 193.730469 67.9375 187.160156 67.9375 Z M 187.160156 67.9375 " fill-opacity="1" fill-rule="nonzero"/></g></g></g><g clip-path="url(#299a171832)"><g clip-path="url(#07dd1cb0a4)"><g clip-path="url(#c73126762e)"><path stroke-linecap="butt" transform="matrix(0.65129, 0, 0, 0.65129, 174.454212, 43.334526)" fill="none" stroke-linejoin="miter" d="M -0.00166889 19.320813 C -0.00166889 29.99075 8.647038 38.639457 19.322974 38.639457 C 29.992911 38.639457 38.641619 29.99075 38.641619 19.320813 C 38.641619 8.650875 29.992911 0.00216755 19.322974 0.00216755 C 8.647038 0.00216755 -0.00166889 8.650875 -0.00166889 19.320813 Z M -0.00166889 19.320813 " stroke="#953cbc" stroke-width="23.031231" stroke-opacity="1" stroke-miterlimit="4"/></g></g></g><path stroke-linecap="round" transform="matrix(-0.460531, -0.460531, 0.460531, -0.460531, 155.027, 92.549325)" fill="none" stroke-linejoin="miter" d="M 4.998215 4.998962 L 115.553292 4.998962 " stroke="#953cbc" stroke-width="10" stroke-opacity="1" stroke-miterlimit="4"/><g clip-path="url(#10e7062ab6)"><g clip-path="url(#3d04b0e904)"><g clip-path="url(#ec9014bac7)"><path fill="#231f20" d="M 95.761719 15.320312 C 88.746094 15.320312 83.058594 21.011719 83.058594 28.019531 C 83.058594 35.03125 88.746094 40.722656 95.761719 40.722656 C 102.777344 40.722656 108.460938 35.03125 108.460938 28.019531 C 108.460938 21.011719 102.777344 15.320312 95.761719 15.320312 Z M 95.761719 39.917969 C 89.191406 39.917969 83.863281 34.589844 83.863281 28.019531 C 83.863281 21.449219 89.191406 16.125 95.761719 16.125 C 102.332031 16.125 107.65625 21.449219 107.65625 28.019531 C 107.65625 34.589844 102.332031 39.917969 95.761719 39.917969 Z M 95.761719 39.917969 " fill-opacity="1" fill-rule="nonzero"/></g></g></g><g clip-path="url(#75cc396c88)"><g clip-path="url(#bb3ce185dc)"><g clip-path="url(#d0f05fd384)"><path stroke-linecap="butt" transform="matrix(0.65129, 0, 0, 0.65129, 83.054008, 15.314618)" fill="none" stroke-linejoin="miter" d="M 0.00104371 19.32139 C 0.00104371 29.991328 8.649751 38.640035 19.319689 38.640035 C 29.989626 38.640035 38.638334 29.991328 38.638334 19.32139 C 38.638334 8.651452 29.989626 0.00274509 19.319689 0.00274509 C 8.649751 0.00274509 0.00104371 8.651452 0.00104371 19.32139 Z M 0.00104371 19.32139 " stroke="#953cbc" stroke-width="23.031231" stroke-opacity="1" stroke-miterlimit="4"/></g></g></g><g clip-path="url(#eaa23fecc4)"><g clip-path="url(#0ec5ee06ed)"><g clip-path="url(#1b13597d65)"><path fill="#231f20" d="M 65.476562 12.699219 C 58.460938 12.699219 52.777344 18.386719 52.777344 25.398438 C 52.777344 32.410156 58.460938 38.097656 65.476562 38.097656 C 72.492188 38.097656 78.175781 32.410156 78.175781 25.398438 C 78.175781 18.386719 72.492188 12.699219 65.476562 12.699219 Z M 65.476562 37.292969 C 58.90625 37.292969 53.582031 31.96875 53.582031 25.398438 C 53.582031 18.828125 58.90625 13.5 65.476562 13.5 C 72.046875 13.5 77.375 18.828125 77.375 25.398438 C 77.375 31.96875 72.046875 37.292969 65.476562 37.292969 Z M 65.476562 37.292969 " fill-opacity="1" fill-rule="nonzero"/></g></g></g><g clip-path="url(#0f3177c92a)"><g clip-path="url(#441732190a)"><g clip-path="url(#b036e13d5c)"><path stroke-linecap="butt" transform="matrix(0.65129, 0, 0, 0.65129, 52.771013, 12.691461)" fill="none" stroke-linejoin="miter" d="M -0.0022751 19.31856 C -0.0022751 29.988498 8.65243 38.643203 19.322368 38.643203 C 29.992305 38.643203 38.641013 29.988498 38.641013 19.31856 C 38.641013 8.648622 29.992305 -0.0000847875 19.322368 -0.0000847875 C 8.65243 -0.0000847875 -0.0022751 8.648622 -0.0022751 19.31856 Z M -0.0022751 19.31856 " stroke="#953cbc" stroke-width="23.031231" stroke-opacity="1" stroke-miterlimit="4"/></g></g></g><path stroke-linecap="round" transform="matrix(-0.45909, -0.461968, 0.461968, -0.45909, 141.285976, 107.248928)" fill="none" stroke-linejoin="miter" d="M 4.998576 4.999488 L 156.649941 5.000687 " stroke="#953cbc" stroke-width="10" stroke-opacity="1" stroke-miterlimit="4"/><path stroke-linecap="round" transform="matrix(-0.460531, -0.460531, 0.460531, -0.460531, 105.896136, 98.894492)" fill="none" stroke-linejoin="miter" d="M 5.001871 4.998385 L 69.100744 4.998385 " stroke="#37cdb9" stroke-width="10" stroke-opacity="1" stroke-miterlimit="4"/><path stroke-linecap="round" transform="matrix(0, 0.651289, -0.651289, 0, 109.074627, 91.497678)" fill="none" stroke-linejoin="miter" d="M 4.999663 5.002722 L 61.822034 5.002722 " stroke="#37cdb9" stroke-width="10" stroke-opacity="1" stroke-miterlimit="4"/><g clip-path="url(#282efd337c)"><g clip-path="url(#2caec77057)"><g clip-path="url(#f83631eaed)"><path fill="#231f20" d="M 67.863281 43.339844 C 60.84375 43.339844 55.160156 49.03125 55.160156 56.039062 C 55.160156 63.050781 60.84375 68.742188 67.863281 68.742188 C 74.878906 68.742188 80.5625 63.050781 80.5625 56.039062 C 80.5625 49.03125 74.878906 43.339844 67.863281 43.339844 Z M 67.863281 67.9375 C 61.292969 67.9375 55.964844 62.609375 55.964844 56.039062 C 55.964844 49.46875 61.292969 44.144531 67.863281 44.144531 C 74.433594 44.144531 79.757812 49.46875 79.757812 56.039062 C 79.757812 62.609375 74.433594 67.9375 67.863281 67.9375 Z M 67.863281 67.9375 " fill-opacity="1" fill-rule="nonzero"/></g></g></g><g clip-path="url(#2376608cad)"><g clip-path="url(#7c5461f60c)"><g clip-path="url(#6f0fcfe525)"><path stroke-linecap="butt" transform="matrix(0.65129, 0, 0, 0.65129, 55.155221, 43.334526)" fill="none" stroke-linejoin="miter" d="M 0.00158009 19.320813 C 0.00158009 29.99075 8.650287 38.639457 19.320225 38.639457 C 29.990163 38.639457 38.63887 29.99075 38.63887 19.320813 C 38.63887 8.650875 29.990163 0.00216755 19.320225 0.00216755 C 8.650287 0.00216755 0.00158009 8.650875 0.00158009 19.320813 Z M 0.00158009 19.320813 " stroke="#37cdb9" stroke-width="23.031231" stroke-opacity="1" stroke-miterlimit="4"/></g></g></g><g clip-path="url(#7cfd38a74f)"><g clip-path="url(#c58c64cd0b)"><g clip-path="url(#ce3f3077f3)"><path fill="#231f20" d="M 35.207031 35.464844 C 28.191406 35.464844 22.507812 41.15625 22.507812 48.164062 C 22.507812 55.175781 28.191406 60.863281 35.207031 60.863281 C 42.222656 60.863281 47.90625 55.175781 47.90625 48.164062 C 47.90625 41.15625 42.222656 35.464844 35.207031 35.464844 Z M 35.207031 60.0625 C 28.636719 60.0625 23.308594 54.734375 23.308594 48.164062 C 23.308594 41.59375 28.636719 36.269531 35.207031 36.269531 C 41.777344 36.269531 47.101562 41.59375 47.101562 48.164062 C 47.101562 54.734375 41.777344 60.0625 35.207031 60.0625 Z M 35.207031 60.0625 " fill-opacity="1" fill-rule="nonzero"/></g></g></g><g clip-path="url(#926506928d)"><g clip-path="url(#fbf711bb82)"><g clip-path="url(#4ba4f96e7f)"><path stroke-linecap="butt" transform="matrix(0.65129, 0, 0, 0.65129, 22.499999, 35.458888)" fill="none" stroke-linejoin="miter" d="M 0.00000143945 19.321792 C 0.00000143945 29.99173 8.648709 38.640437 19.318646 38.640437 C 29.988584 38.640437 38.643289 29.99173 38.643289 19.321792 C 38.643289 8.651854 29.988584 -0.00285083 19.318646 -0.00285083 C 8.648709 -0.00285083 0.00000143945 8.651854 0.00000143945 19.321792 Z M 0.00000143945 19.321792 " stroke="#37cdb9" stroke-width="23.031231" stroke-opacity="1" stroke-miterlimit="4"/></g></g></g><path stroke-linecap="round" transform="matrix(-0.460531, -0.460531, 0.460531, -0.460531, 80.715736, 99.468023)" fill="none" stroke-linejoin="miter" d="M 5.000349 4.998412 L 85.198158 4.998412 " stroke="#37cdb9" stroke-width="10" stroke-opacity="1" stroke-miterlimit="4"/><path stroke-linecap="round" transform="matrix(0.00632253, 0.651259, -0.651259, 0.00632253, 84.850477, 92.193455)" fill="none" stroke-linejoin="miter" d="M 4.998617 5.001209 L 82.08492 4.999825 " stroke="#37cdb9" stroke-width="10" stroke-opacity="1" stroke-miterlimit="4"/><path stroke-linecap="round" transform="matrix(0.463981, 0.457055, -0.457055, 0.463981, 170.230481, 149.232352)" fill="none" stroke-linejoin="miter" d="M 4.998843 4.997699 L 67.746592 4.998768 " stroke="#37cdb9" stroke-width="10" stroke-opacity="1" stroke-miterlimit="4"/><path stroke-linecap="round" transform="matrix(0.460531, 0.460531, -0.460531, 0.460531, 155.974198, 158.948149)" fill="none" stroke-linejoin="miter" d="M 4.999657 5.003006 L 73.538885 4.998765 " stroke="#37cdb9" stroke-width="10" stroke-opacity="1" stroke-miterlimit="4"/><path stroke-linecap="round" transform="matrix(0.460531, 0.460531, -0.460531, 0.460531, 144.45099, 171.236458)" fill="none" stroke-linejoin="miter" d="M 4.995986 4.999832 L 68.475669 4.999832 " stroke="#37cdb9" stroke-width="10" stroke-opacity="1" stroke-miterlimit="4"/><path stroke-linecap="round" transform="matrix(0, 0.651289, -0.651289, 0, 146.852468, 123.363886)" fill="none" stroke-linejoin="miter" d="M 5.001168 4.997489 L 78.437215 4.997489 " stroke="#37cdb9" stroke-width="10" stroke-opacity="1" stroke-miterlimit="4"/><path stroke-linecap="round" transform="matrix(0, 0.651289, -0.651289, 0, 158.674973, 138.132045)" fill="none" stroke-linejoin="miter" d="M 4.997277 5.000856 L 38.266613 5.000856 " stroke="#37cdb9" stroke-width="10" stroke-opacity="1" stroke-miterlimit="4"/><path stroke-linecap="round" transform="matrix(-0.456851, 0.464182, -0.464182, -0.456851, 213.795605, 59.007716)" fill="none" stroke-linejoin="miter" d="M 4.997423 5.000453 L 147.962727 4.997562 " stroke="#37cdb9" stroke-width="10" stroke-opacity="1" stroke-miterlimit="4"/><g clip-path="url(#a8771c1084)"><g clip-path="url(#ca94eed632)"><g clip-path="url(#5e0fafa2ac)"><path fill="#231f20" d="M 217.429688 36.382812 C 210.414062 36.382812 204.730469 42.070312 204.730469 49.082031 C 204.730469 56.09375 210.414062 61.78125 217.429688 61.78125 C 224.445312 61.78125 230.132812 56.09375 230.132812 49.082031 C 230.132812 42.070312 224.445312 36.382812 217.429688 36.382812 Z M 217.429688 60.976562 C 210.859375 60.976562 205.535156 55.652344 205.535156 49.082031 C 205.535156 42.511719 210.859375 37.1875 217.429688 37.1875 C 224 37.1875 229.328125 42.511719 229.328125 49.082031 C 229.328125 55.652344 224 60.976562 217.429688 60.976562 Z M 217.429688 60.976562 " fill-opacity="1" fill-rule="nonzero"/></g></g></g><g clip-path="url(#5ed4f44c13)"><g clip-path="url(#6dc6da2dac)"><g clip-path="url(#334ad29ea7)"><path stroke-linecap="butt" transform="matrix(0.65129, 0, 0, 0.65129, 204.725221, 36.376118)" fill="none" stroke-linejoin="miter" d="M 0.00205965 19.322926 C 0.00205965 29.992864 8.650767 38.641571 19.320705 38.641571 C 29.990642 38.641571 38.63935 29.992864 38.63935 19.322926 C 38.63935 8.652988 29.990642 -0.0017166 19.320705 -0.0017166 C 8.650767 -0.0017166 0.00205965 8.652988 0.00205965 19.322926 Z M 0.00205965 19.322926 " stroke="#37cdb9" stroke-width="23.031231" stroke-opacity="1" stroke-miterlimit="4"/></g></g></g><path stroke-linecap="round" transform="matrix(-0.460531, 0.460531, -0.460531, -0.460531, 209.63504, 91.1533)" fill="none" stroke-linejoin="miter" d="M 4.99731 4.999386 L 112.023852 4.999386 " stroke="#37cdb9" stroke-width="10" stroke-opacity="1" stroke-miterlimit="4"/><g clip-path="url(#a73759d8c8)"><g clip-path="url(#3611223d58)"><g clip-path="url(#5576678e5c)"><path fill="#231f20" d="M 214.402344 68.511719 C 207.386719 68.511719 201.703125 74.199219 201.703125 81.210938 C 201.703125 88.222656 207.386719 93.910156 214.402344 93.910156 C 221.421875 93.910156 227.105469 88.222656 227.105469 81.210938 C 227.105469 74.199219 221.421875 68.511719 214.402344 68.511719 Z M 214.402344 93.105469 C 207.832031 93.105469 202.507812 87.78125 202.507812 81.210938 C 202.507812 74.640625 207.832031 69.316406 214.402344 69.316406 C 220.972656 69.316406 226.300781 74.640625 226.300781 81.210938 C 226.300781 87.78125 220.972656 93.105469 214.402344 93.105469 Z M 214.402344 93.105469 " fill-opacity="1" fill-rule="nonzero"/></g></g></g><g clip-path="url(#682a8eb99d)"><g clip-path="url(#b8162b3a08)"><g clip-path="url(#0eae298b0d)"><path stroke-linecap="butt" transform="matrix(0.65129, 0, 0, 0.65129, 201.698077, 68.504978)" fill="none" stroke-linejoin="miter" d="M 0.00175276 19.322997 C 0.00175276 29.992934 8.65046 38.641642 19.320398 38.641642 C 29.990335 38.641642 38.639043 29.992934 38.639043 19.322997 C 38.639043 8.647061 29.990335 -0.00164611 19.320398 -0.00164611 C 8.65046 -0.00164611 0.00175276 8.647061 0.00175276 19.322997 Z M 0.00175276 19.322997 " stroke="#37cdb9" stroke-width="23.031231" stroke-opacity="1" stroke-miterlimit="4"/></g></g></g><path stroke-linecap="round" transform="matrix(-0.460531, 0.460531, -0.460531, -0.460531, 241.149981, 86.264106)" fill="none" stroke-linejoin="miter" d="M 5.003495 5.000197 L 148.545275 5.000197 " stroke="#37cdb9" stroke-width="10" stroke-opacity="1" stroke-miterlimit="4"/><g clip-path="url(#eaf88417fa)"><g clip-path="url(#4e91364611)"><g clip-path="url(#68867e31b3)"><path fill="#231f20" d="M 244.675781 63.683594 C 237.660156 63.683594 231.976562 69.375 231.976562 76.382812 C 231.976562 83.394531 237.660156 89.085938 244.675781 89.085938 C 251.691406 89.085938 257.375 83.394531 257.375 76.382812 C 257.375 69.375 251.691406 63.683594 244.675781 63.683594 Z M 244.675781 88.28125 C 238.105469 88.28125 232.777344 82.953125 232.777344 76.382812 C 232.777344 69.8125 238.105469 64.488281 244.675781 64.488281 C 251.246094 64.488281 256.570312 69.8125 256.570312 76.382812 C 256.570312 82.953125 251.246094 88.28125 244.675781 88.28125 Z M 244.675781 88.28125 " fill-opacity="1" fill-rule="nonzero"/></g></g></g><g clip-path="url(#286e556bc5)"><g clip-path="url(#26b51a143b)"><g clip-path="url(#0df64047c6)"><path stroke-linecap="butt" transform="matrix(0.65129, 0, 0, 0.65129, 231.969132, 63.678055)" fill="none" stroke-linejoin="miter" d="M -0.000586428 19.321151 C -0.000586428 29.991089 8.648121 38.639796 19.318059 38.639796 C 29.987996 38.639796 38.642701 29.991089 38.642701 19.321151 C 38.642701 8.651213 29.987996 0.00250603 19.318059 0.00250603 C 8.648121 0.00250603 -0.000586428 8.651213 -0.000586428 19.321151 Z M -0.000586428 19.321151 " stroke="#37cdb9" stroke-width="23.031231" stroke-opacity="1" stroke-miterlimit="4"/></g></g></g><g fill="#953cbc" fill-opacity="1"><g transform="translate(219.082631, 173.857317)"><g><path d="M 8.515625 0 C 7.273438 0 6.253906 -0.398438 5.453125 -1.203125 C 4.648438 -2.003906 4.25 -3.019531 4.25 -4.25 L 4.25 -51.46875 C 4.25 -52.707031 4.648438 -53.722656 5.453125 -54.515625 C 6.253906 -55.316406 7.273438 -55.71875 8.515625 -55.71875 L 21.59375 -55.71875 C 25.875 -55.71875 29.613281 -54.914062 32.8125 -53.3125 C 36.007812 -51.71875 38.675781 -49.617188 40.8125 -47.015625 C 42.957031 -44.410156 44.554688 -41.441406 45.609375 -38.109375 C 46.671875 -34.785156 47.203125 -31.367188 47.203125 -27.859375 C 47.203125 -24.398438 46.671875 -20.992188 45.609375 -17.640625 C 44.554688 -14.285156 42.957031 -11.304688 40.8125 -8.703125 C 38.675781 -6.097656 36.007812 -3.992188 32.8125 -2.390625 C 29.613281 -0.796875 25.875 0 21.59375 0 Z M 12.6875 -47.984375 L 12.6875 -7.734375 L 21.59375 -7.734375 C 24.476562 -7.734375 26.988281 -8.3125 29.125 -9.46875 C 31.269531 -10.632812 33.050781 -12.160156 34.46875 -14.046875 C 35.894531 -15.929688 36.96875 -18.070312 37.6875 -20.46875 C 38.40625 -22.863281 38.765625 -25.328125 38.765625 -27.859375 C 38.765625 -30.390625 38.40625 -32.851562 37.6875 -35.25 C 36.96875 -37.644531 35.894531 -39.785156 34.46875 -41.671875 C 33.050781 -43.554688 31.269531 -45.078125 29.125 -46.234375 C 26.988281 -47.398438 24.476562 -47.984375 21.59375 -47.984375 Z M 12.6875 -47.984375 "/></g></g></g><g fill="#953cbc" fill-opacity="1"><g transform="translate(264.974147, 173.857317)"><g><path d="M 34.828125 -8.515625 C 34.148438 -7.015625 33.269531 -5.695312 32.1875 -4.5625 C 31.101562 -3.425781 29.890625 -2.484375 28.546875 -1.734375 C 27.210938 -0.992188 25.769531 -0.425781 24.21875 -0.03125 C 22.675781 0.351562 21.128906 0.546875 19.578125 0.546875 C 17.515625 0.546875 15.488281 0.210938 13.5 -0.453125 C 11.519531 -1.128906 9.738281 -2.125 8.15625 -3.4375 C 6.582031 -4.757812 5.316406 -6.425781 4.359375 -8.4375 C 3.410156 -10.445312 2.9375 -12.769531 2.9375 -15.40625 L 2.9375 -22.59375 C 2.9375 -25.382812 3.398438 -27.820312 4.328125 -29.90625 C 5.265625 -32 6.503906 -33.726562 8.046875 -35.09375 C 9.597656 -36.457031 11.351562 -37.488281 13.3125 -38.1875 C 15.269531 -38.882812 17.28125 -39.234375 19.34375 -39.234375 C 21.351562 -39.234375 23.3125 -38.894531 25.21875 -38.21875 C 27.132812 -37.550781 28.835938 -36.5625 30.328125 -35.25 C 31.828125 -33.9375 33.03125 -32.285156 33.9375 -30.296875 C 34.84375 -28.304688 35.296875 -26 35.296875 -23.375 C 35.296875 -20.738281 34.648438 -18.765625 33.359375 -17.453125 C 32.066406 -16.140625 29.898438 -15.484375 26.859375 -15.484375 L 11.375 -15.484375 C 11.375 -14.035156 11.601562 -12.753906 12.0625 -11.640625 C 12.53125 -10.535156 13.148438 -9.632812 13.921875 -8.9375 C 14.703125 -8.238281 15.582031 -7.707031 16.5625 -7.34375 C 17.539062 -6.988281 18.546875 -6.8125 19.578125 -6.8125 C 21.234375 -6.8125 22.78125 -7.257812 24.21875 -8.15625 C 25.664062 -9.0625 26.695312 -10.421875 27.3125 -12.234375 Z M 25.078125 -22.4375 C 26.265625 -22.4375 26.859375 -22.976562 26.859375 -24.0625 C 26.859375 -25.300781 26.632812 -26.410156 26.1875 -27.390625 C 25.75 -28.367188 25.179688 -29.191406 24.484375 -29.859375 C 23.796875 -30.535156 23 -31.039062 22.09375 -31.375 C 21.1875 -31.71875 20.269531 -31.890625 19.34375 -31.890625 C 18.363281 -31.890625 17.394531 -31.691406 16.4375 -31.296875 C 15.488281 -30.910156 14.640625 -30.332031 13.890625 -29.5625 C 13.140625 -28.789062 12.53125 -27.8125 12.0625 -26.625 C 11.601562 -25.4375 11.375 -24.039062 11.375 -22.4375 Z M 25.078125 -22.4375 "/></g></g></g><g fill="#953cbc" fill-opacity="1"><g transform="translate(298.560721, 173.857317)"><g><path d="M 19.8125 0.546875 C 17.90625 0.546875 16.382812 0.0820312 15.25 -0.84375 C 14.113281 -1.78125 13.257812 -3.046875 12.6875 -4.640625 L 0.546875 -38.703125 L 9.4375 -38.703125 L 19.8125 -9.59375 L 30.1875 -38.703125 L 39.078125 -38.703125 L 26.9375 -4.640625 C 26.363281 -3.046875 25.507812 -1.78125 24.375 -0.84375 C 23.238281 0.0820312 21.71875 0.546875 19.8125 0.546875 Z M 19.8125 0.546875 "/></g></g></g><g fill="#953cbc" fill-opacity="1"><g transform="translate(334.159429, 173.857317)"><g><path d="M 34.828125 -8.515625 C 34.148438 -7.015625 33.269531 -5.695312 32.1875 -4.5625 C 31.101562 -3.425781 29.890625 -2.484375 28.546875 -1.734375 C 27.210938 -0.992188 25.769531 -0.425781 24.21875 -0.03125 C 22.675781 0.351562 21.128906 0.546875 19.578125 0.546875 C 17.515625 0.546875 15.488281 0.210938 13.5 -0.453125 C 11.519531 -1.128906 9.738281 -2.125 8.15625 -3.4375 C 6.582031 -4.757812 5.316406 -6.425781 4.359375 -8.4375 C 3.410156 -10.445312 2.9375 -12.769531 2.9375 -15.40625 L 2.9375 -22.59375 C 2.9375 -25.382812 3.398438 -27.820312 4.328125 -29.90625 C 5.265625 -32 6.503906 -33.726562 8.046875 -35.09375 C 9.597656 -36.457031 11.351562 -37.488281 13.3125 -38.1875 C 15.269531 -38.882812 17.28125 -39.234375 19.34375 -39.234375 C 21.351562 -39.234375 23.3125 -38.894531 25.21875 -38.21875 C 27.132812 -37.550781 28.835938 -36.5625 30.328125 -35.25 C 31.828125 -33.9375 33.03125 -32.285156 33.9375 -30.296875 C 34.84375 -28.304688 35.296875 -26 35.296875 -23.375 C 35.296875 -20.738281 34.648438 -18.765625 33.359375 -17.453125 C 32.066406 -16.140625 29.898438 -15.484375 26.859375 -15.484375 L 11.375 -15.484375 C 11.375 -14.035156 11.601562 -12.753906 12.0625 -11.640625 C 12.53125 -10.535156 13.148438 -9.632812 13.921875 -8.9375 C 14.703125 -8.238281 15.582031 -7.707031 16.5625 -7.34375 C 17.539062 -6.988281 18.546875 -6.8125 19.578125 -6.8125 C 21.234375 -6.8125 22.78125 -7.257812 24.21875 -8.15625 C 25.664062 -9.0625 26.695312 -10.421875 27.3125 -12.234375 Z M 25.078125 -22.4375 C 26.265625 -22.4375 26.859375 -22.976562 26.859375 -24.0625 C 26.859375 -25.300781 26.632812 -26.410156 26.1875 -27.390625 C 25.75 -28.367188 25.179688 -29.191406 24.484375 -29.859375 C 23.796875 -30.535156 23 -31.039062 22.09375 -31.375 C 21.1875 -31.71875 20.269531 -31.890625 19.34375 -31.890625 C 18.363281 -31.890625 17.394531 -31.691406 16.4375 -31.296875 C 15.488281 -30.910156 14.640625 -30.332031 13.890625 -29.5625 C 13.140625 -28.789062 12.53125 -27.8125 12.0625 -26.625 C 11.601562 -25.4375 11.375 -24.039062 11.375 -22.4375 Z M 25.078125 -22.4375 "/></g></g></g><g fill="#953cbc" fill-opacity="1"><g transform="translate(367.745999, 173.857317)"><g><path d="M 3.484375 0 L 3.484375 -58.046875 L 11.921875 -58.046875 L 11.921875 0 Z M 3.484375 0 "/></g></g></g><g fill="#953cbc" fill-opacity="1"><g transform="translate(379.12223, 173.857317)"><g/></g></g><g fill="#953cbc" fill-opacity="1"><g transform="translate(399.862145, 173.857317)"><g/></g></g><g fill="#953cbc" fill-opacity="1"><g transform="translate(420.60778, 173.857317)"><g><path d="M 35.140625 -14.390625 C 35.140625 -11.921875 34.722656 -9.753906 33.890625 -7.890625 C 33.066406 -6.035156 31.984375 -4.472656 30.640625 -3.203125 C 29.304688 -1.941406 27.800781 -1 26.125 -0.375 C 24.445312 0.238281 22.753906 0.546875 21.046875 0.546875 C 17.234375 0.546875 14.191406 -0.796875 11.921875 -3.484375 L 11.921875 17.03125 L 3.484375 17.03125 L 3.484375 -38.703125 L 10.828125 -38.703125 L 11.53125 -34.75 C 12.664062 -36.25 14.070312 -37.367188 15.75 -38.109375 C 17.425781 -38.859375 19.191406 -39.234375 21.046875 -39.234375 C 22.753906 -39.234375 24.445312 -38.921875 26.125 -38.296875 C 27.800781 -37.679688 29.304688 -36.742188 30.640625 -35.484375 C 31.984375 -34.222656 33.066406 -32.660156 33.890625 -30.796875 C 34.722656 -28.941406 35.140625 -26.773438 35.140625 -24.296875 Z M 26.703125 -24.296875 C 26.703125 -25.484375 26.503906 -26.53125 26.109375 -27.4375 C 25.722656 -28.34375 25.207031 -29.085938 24.5625 -29.671875 C 23.925781 -30.265625 23.191406 -30.71875 22.359375 -31.03125 C 21.535156 -31.34375 20.6875 -31.5 19.8125 -31.5 C 18.832031 -31.5 17.878906 -31.316406 16.953125 -30.953125 C 16.023438 -30.597656 15.1875 -30.054688 14.4375 -29.328125 C 13.6875 -28.609375 13.078125 -27.734375 12.609375 -26.703125 C 12.148438 -25.671875 11.921875 -24.457031 11.921875 -23.0625 L 11.921875 -15.640625 C 11.921875 -14.242188 12.148438 -13.03125 12.609375 -12 C 13.078125 -10.96875 13.6875 -10.085938 14.4375 -9.359375 C 15.1875 -8.640625 16.023438 -8.097656 16.953125 -7.734375 C 17.878906 -7.378906 18.832031 -7.203125 19.8125 -7.203125 C 20.6875 -7.203125 21.535156 -7.351562 22.359375 -7.65625 C 23.191406 -7.96875 23.925781 -8.421875 24.5625 -9.015625 C 25.207031 -9.609375 25.722656 -10.351562 26.109375 -11.25 C 26.503906 -12.15625 26.703125 -13.203125 26.703125 -14.390625 Z M 26.703125 -24.296875 "/></g></g></g><g fill="#953cbc" fill-opacity="1"><g transform="translate(454.658696, 173.857317)"><g><path d="M 34.828125 -8.515625 C 34.148438 -7.015625 33.269531 -5.695312 32.1875 -4.5625 C 31.101562 -3.425781 29.890625 -2.484375 28.546875 -1.734375 C 27.210938 -0.992188 25.769531 -0.425781 24.21875 -0.03125 C 22.675781 0.351562 21.128906 0.546875 19.578125 0.546875 C 17.515625 0.546875 15.488281 0.210938 13.5 -0.453125 C 11.519531 -1.128906 9.738281 -2.125 8.15625 -3.4375 C 6.582031 -4.757812 5.316406 -6.425781 4.359375 -8.4375 C 3.410156 -10.445312 2.9375 -12.769531 2.9375 -15.40625 L 2.9375 -22.59375 C 2.9375 -25.382812 3.398438 -27.820312 4.328125 -29.90625 C 5.265625 -32 6.503906 -33.726562 8.046875 -35.09375 C 9.597656 -36.457031 11.351562 -37.488281 13.3125 -38.1875 C 15.269531 -38.882812 17.28125 -39.234375 19.34375 -39.234375 C 21.351562 -39.234375 23.3125 -38.894531 25.21875 -38.21875 C 27.132812 -37.550781 28.835938 -36.5625 30.328125 -35.25 C 31.828125 -33.9375 33.03125 -32.285156 33.9375 -30.296875 C 34.84375 -28.304688 35.296875 -26 35.296875 -23.375 C 35.296875 -20.738281 34.648438 -18.765625 33.359375 -17.453125 C 32.066406 -16.140625 29.898438 -15.484375 26.859375 -15.484375 L 11.375 -15.484375 C 11.375 -14.035156 11.601562 -12.753906 12.0625 -11.640625 C 12.53125 -10.535156 13.148438 -9.632812 13.921875 -8.9375 C 14.703125 -8.238281 15.582031 -7.707031 16.5625 -7.34375 C 17.539062 -6.988281 18.546875 -6.8125 19.578125 -6.8125 C 21.234375 -6.8125 22.78125 -7.257812 24.21875 -8.15625 C 25.664062 -9.0625 26.695312 -10.421875 27.3125 -12.234375 Z M 25.078125 -22.4375 C 26.265625 -22.4375 26.859375 -22.976562 26.859375 -24.0625 C 26.859375 -25.300781 26.632812 -26.410156 26.1875 -27.390625 C 25.75 -28.367188 25.179688 -29.191406 24.484375 -29.859375 C 23.796875 -30.535156 23 -31.039062 22.09375 -31.375 C 21.1875 -31.71875 20.269531 -31.890625 19.34375 -31.890625 C 18.363281 -31.890625 17.394531 -31.691406 16.4375 -31.296875 C 15.488281 -30.910156 14.640625 -30.332031 13.890625 -29.5625 C 13.140625 -28.789062 12.53125 -27.8125 12.0625 -26.625 C 11.601562 -25.4375 11.375 -24.039062 11.375 -22.4375 Z M 25.078125 -22.4375 "/></g></g></g><g fill="#953cbc" fill-opacity="1"><g transform="translate(488.24527, 173.857317)"><g><path d="M 27.015625 -29.328125 C 24.640625 -30.773438 22.34375 -31.5 20.125 -31.5 C 17.800781 -31.5 15.851562 -30.671875 14.28125 -29.015625 C 12.707031 -27.367188 11.921875 -25 11.921875 -21.90625 L 11.921875 0 L 3.484375 0 L 3.484375 -38.703125 L 10.828125 -38.703125 L 11.53125 -33.8125 C 12.71875 -35.625 14.046875 -36.976562 15.515625 -37.875 C 16.984375 -38.78125 18.695312 -39.234375 20.65625 -39.234375 C 21.59375 -39.234375 22.585938 -39.128906 23.640625 -38.921875 C 24.703125 -38.722656 25.828125 -38.414062 27.015625 -38 Z M 27.015625 -29.328125 "/></g></g></g><g fill="#953cbc" fill-opacity="1"><g transform="translate(513.164224, 173.857317)"><g><path d="M 27.859375 -30.03125 C 27.398438 -30.1875 26.769531 -30.335938 25.96875 -30.484375 C 25.164062 -30.640625 24.285156 -30.796875 23.328125 -30.953125 C 22.378906 -31.109375 21.390625 -31.238281 20.359375 -31.34375 C 19.328125 -31.445312 18.316406 -31.5 17.328125 -31.5 C 15.628906 -31.5 14.144531 -31.289062 12.875 -30.875 C 11.613281 -30.46875 10.984375 -29.695312 10.984375 -28.5625 C 10.984375 -27.832031 11.175781 -27.195312 11.5625 -26.65625 C 11.957031 -26.113281 12.472656 -25.632812 13.109375 -25.21875 C 13.753906 -24.8125 14.503906 -24.453125 15.359375 -24.140625 C 16.210938 -23.835938 17.128906 -23.554688 18.109375 -23.296875 C 19.503906 -22.878906 20.945312 -22.410156 22.4375 -21.890625 C 23.9375 -21.378906 25.304688 -20.695312 26.546875 -19.84375 C 27.785156 -19 28.800781 -17.929688 29.59375 -16.640625 C 30.394531 -15.347656 30.796875 -13.695312 30.796875 -11.6875 C 30.796875 -9.363281 30.382812 -7.414062 29.5625 -5.84375 C 28.738281 -4.269531 27.640625 -3.019531 26.265625 -2.09375 C 24.898438 -1.164062 23.316406 -0.492188 21.515625 -0.078125 C 19.710938 0.335938 17.828125 0.546875 15.859375 0.546875 C 13.390625 0.546875 10.914062 0.289062 8.4375 -0.21875 C 5.957031 -0.738281 3.738281 -1.390625 1.78125 -2.171875 L 3.171875 -9.671875 C 3.742188 -9.410156 4.492188 -9.140625 5.421875 -8.859375 C 6.347656 -8.578125 7.378906 -8.304688 8.515625 -8.046875 C 9.648438 -7.785156 10.820312 -7.578125 12.03125 -7.421875 C 13.25 -7.273438 14.425781 -7.203125 15.5625 -7.203125 C 17.414062 -7.203125 19.007812 -7.5 20.34375 -8.09375 C 21.6875 -8.6875 22.359375 -9.804688 22.359375 -11.453125 C 22.359375 -12.066406 22.148438 -12.609375 21.734375 -13.078125 C 21.328125 -13.546875 20.757812 -13.945312 20.03125 -14.28125 C 19.3125 -14.613281 18.488281 -14.921875 17.5625 -15.203125 C 16.632812 -15.492188 15.65625 -15.789062 14.625 -16.09375 C 13.226562 -16.507812 11.820312 -17 10.40625 -17.5625 C 8.988281 -18.132812 7.695312 -18.882812 6.53125 -19.8125 C 5.375 -20.738281 4.421875 -21.882812 3.671875 -23.25 C 2.921875 -24.625 2.546875 -26.316406 2.546875 -28.328125 C 2.546875 -30.441406 2.972656 -32.191406 3.828125 -33.578125 C 4.679688 -34.972656 5.816406 -36.082031 7.234375 -36.90625 C 8.648438 -37.738281 10.257812 -38.332031 12.0625 -38.6875 C 13.875 -39.050781 15.734375 -39.234375 17.640625 -39.234375 C 19.804688 -39.234375 21.894531 -39.050781 23.90625 -38.6875 C 25.925781 -38.332031 27.707031 -37.921875 29.25 -37.453125 Z M 27.859375 -30.03125 "/></g></g></g><g fill="#953cbc" fill-opacity="1"><g transform="translate(189.59275, 173.395252)"><g><path d="M 2.703125 -21.28125 C 2.703125 -22.363281 2.945312 -23.265625 3.4375 -23.984375 C 3.925781 -24.710938 4.5625 -25.382812 5.34375 -26 L 29.5625 -44.8125 L 29.5625 -34.984375 L 12 -21.28125 L 29.5625 -7.578125 L 29.5625 2.25 L 5.34375 -16.5625 C 4.5625 -17.175781 3.925781 -17.84375 3.4375 -18.5625 C 2.945312 -19.289062 2.703125 -20.195312 2.703125 -21.28125 Z M 2.703125 -21.28125 "/></g></g></g><g fill="#953cbc" fill-opacity="1"><g transform="translate(543.989927, 173.857317)"><g><path d="M 29.5625 -21.28125 C 29.5625 -20.195312 29.316406 -19.289062 28.828125 -18.5625 C 28.335938 -17.84375 27.707031 -17.175781 26.9375 -16.5625 L 2.703125 2.25 L 2.703125 -7.578125 L 20.28125 -21.28125 L 2.703125 -34.984375 L 2.703125 -44.8125 L 26.9375 -26 C 27.707031 -25.382812 28.335938 -24.710938 28.828125 -23.984375 C 29.316406 -23.265625 29.5625 -22.363281 29.5625 -21.28125 Z M 29.5625 -21.28125 "/></g></g></g><g clip-path="url(#f715e16ab8)"><path fill="#000000" d="M 415.027344 172.542969 L 415.027344 169.144531 L 418.417969 169.144531 L 418.417969 165.742188 L 420.117188 165.742188 L 420.117188 162.351562 L 421.816406 162.351562 L 421.816406 150.355469 L 420.117188 150.355469 L 420.117188 146.957031 L 413.222656 146.957031 L 413.222656 150.355469 L 409.925781 150.355469 L 409.925781 143.558594 L 408.234375 143.558594 L 408.234375 140.164062 L 406.535156 140.164062 L 406.535156 136.765625 L 391.140625 136.765625 L 391.140625 140.164062 L 387.742188 140.164062 L 387.742188 143.558594 L 386.046875 143.558594 L 386.046875 146.957031 L 382.648438 146.957031 L 382.648438 152.160156 L 384.347656 152.160156 L 384.347656 155.558594 L 387.742188 155.558594 L 387.742188 162.351562 L 389.441406 162.351562 L 389.441406 165.742188 L 391.140625 165.742188 L 391.140625 169.144531 L 394.539062 169.144531 L 394.539062 172.542969 Z M 415.027344 172.542969 " fill-opacity="1" fill-rule="nonzero"/></g><path fill="#953cbc" d="M 383.550781 147.859375 L 383.550781 151.257812 L 385.25 151.257812 L 385.25 154.65625 L 388.640625 154.65625 L 388.640625 161.449219 L 390.339844 161.449219 L 390.339844 164.84375 L 392.042969 164.84375 L 392.042969 168.242188 L 395.441406 168.242188 L 395.441406 171.640625 L 414.125 171.640625 L 414.125 168.242188 L 417.515625 168.242188 L 417.515625 164.851562 L 419.214844 164.851562 L 419.214844 161.449219 L 420.917969 161.449219 L 420.917969 151.257812 L 419.214844 151.257812 L 419.214844 147.859375 L 414.125 147.859375 L 414.125 151.257812 L 409.023438 151.257812 L 409.023438 144.457031 L 407.332031 144.457031 L 407.332031 141.066406 L 405.632812 141.066406 L 405.632812 137.667969 L 392.042969 137.667969 L 392.042969 141.066406 L 388.640625 141.066406 L 388.640625 144.457031 L 386.941406 144.457031 L 386.941406 147.859375 Z M 383.550781 147.859375 " fill-opacity="1" fill-rule="nonzero"/><path fill="#37cdb9" d="M 390.339844 147.859375 L 386.941406 147.859375 L 386.941406 151.257812 L 390.339844 151.257812 Z M 390.339844 147.859375 " fill-opacity="1" fill-rule="nonzero"/><path fill="#000000" d="M 392.042969 144.457031 L 392.042969 141.066406 L 403.933594 141.066406 L 403.933594 144.457031 L 405.632812 144.457031 L 405.632812 151.257812 L 403.933594 151.257812 L 403.933594 154.65625 L 414.125 154.65625 L 414.125 151.257812 L 417.515625 151.257812 L 417.515625 161.441406 L 415.816406 161.441406 L 415.808594 161.449219 L 415.824219 161.449219 L 415.824219 164.851562 L 414.125 164.851562 L 414.125 168.242188 L 395.441406 168.242188 L 395.441406 165.054688 L 395.347656 164.851562 L 393.742188 164.851562 L 393.742188 161.441406 L 392.042969 161.441406 L 392.042969 154.65625 L 393.742188 154.65625 L 393.742188 151.257812 L 390.339844 151.257812 L 390.339844 144.457031 Z M 393.742188 147.859375 L 395.441406 147.859375 L 395.441406 144.464844 L 393.742188 144.464844 Z M 393.742188 147.859375 " fill-opacity="1" fill-rule="nonzero"/></svg>